<?xml version="1.0" encoding="UTF-8" standalone="no"?>
<svg
   xmlns:dc="http://purl.org/dc/elements/1.1/"
   xmlns:cc="http://creativecommons.org/ns#"
   xmlns:rdf="http://www.w3.org/1999/02/22-rdf-syntax-ns#"
   xmlns:svg="http://www.w3.org/2000/svg"
   xmlns="http://www.w3.org/2000/svg"
   id="svg8"
   version="1.1"
   viewBox="0 0 1250 1242"
   height="1242pt"
   width="1250pt">
  <metadata
     id="metadata14">
    <rdf:RDF>
      <cc:Work
         rdf:about="">
        <dc:format>image/svg+xml</dc:format>
        <dc:type
           rdf:resource="http://purl.org/dc/dcmitype/StillImage" />
        <dc:title></dc:title>
      </cc:Work>
    </rdf:RDF>
  </metadata>
  <defs
     id="defs12" />
  <g
     id="#ffffffff">
    <path
       style="opacity:1;fill:#007bff;fill-opacity:0.94117647"
       id="path2"
       d="m 582.9,35.06 c 5.03,-0.53 10.05,-1.35 15.13,-1.33 15.31,-0.18 30.63,-0.49 45.94,0.18 17.57,0.6 34.93,3.74 52.46,4.83 41.41,4.86 81.44,17.47 120.43,31.83 17.39,5.76 34.26,12.97 50.97,20.46 49.65,22.15 96.05,51.5 137.51,86.64 19.67,18.9 39.45,37.72 57.84,57.88 15.28,16.13 27.54,34.75 40.16,52.95 9.38,14.05 19.01,27.95 27.91,42.32 10.95,18.02 19.39,37.37 28.66,56.27 7.74,15.75 13.22,32.45 19.07,48.96 6.68,19.21 13.03,38.54 18.6,58.1 6.53,23.17 10.73,46.96 13.4,70.88 2.53,21.59 3.31,43.32 4.47,65.02 0.5,15.69 -0.87,31.35 -1.87,47 -1.34,21.85 -4.61,43.53 -8.06,65.13 -2.88,19.31 -6.74,38.49 -12.07,57.27 -5.47,18.44 -12.02,36.56 -19.66,54.21 -7.11,16.26 -13.05,33.05 -21.43,48.72 -7.87,14.76 -15.18,29.85 -24,44.08 -10.74,17.54 -22.84,34.2 -35.11,50.7 -8.58,11.43 -16.88,23.1 -26.29,33.88 -11.72,13.55 -24.12,26.5 -36.45,39.48 -26.34,26.93 -57.38,48.58 -88.72,69.2 -14.45,9.2 -29.62,17.18 -44.66,25.34 -17.12,9.15 -34.85,17.17 -53,24.07 -17.42,6.8 -35.45,11.83 -53.25,17.5 -38.82,11.92 -78.67,20.58 -118.99,25.51 -24.17,2.65 -48.55,3.76 -72.85,2.5 -27.53,-1.39 -54.99,-4.1 -82.26,-8.09 -37.75,-4.93 -74.63,-15.17 -110.38,-28.07 -18.36,-6.82 -36.75,-13.7 -54.15,-22.73 -29.81,-15.49 -59.46,-31.54 -86.83,-51.12 -22.67,-16 -44.13,-33.69 -64.3,-52.74 -16.68,-15.44 -31.17,-33 -45.8,-50.34 -9.6,-10.88 -17.63,-23.02 -26.24,-34.67 -10.1,-14.31 -20.3,-28.62 -28.67,-44.03 C 90.88,926.02 81.05,909.35 72.06,892.22 62.75,873.15 56.01,852.98 48.66,833.1 46.02,825.79 43,818.61 40.63,811.19 34.37,792.03 30.6,772.2 26.32,752.54 c -3.23,-16.31 -5.36,-32.88 -5.49,-49.52 -0.04,-6.51 -2.16,-13.67 1.46,-19.62 3.84,-6.82 14.75,-6.99 19.31,-0.88 8.79,10.57 13.45,23.73 18.61,36.28 8,20.12 18.11,39.3 28.39,58.32 8.5,13.93 16.43,28.23 25.92,41.53 10.41,15.56 20.9,31.3 34.32,44.46 22.84,23.26 47.15,45.14 73.2,64.75 13.23,9.3 26.82,18.1 40.75,26.32 15.83,9.09 32.23,17.15 48.58,25.26 30.64,13.49 62.48,24.47 95.25,31.51 -5.54,-16.24 -11.71,-32.32 -15.74,-49.03 -8.56,-34.15 -9.92,-69.75 -6.78,-104.71 -27.2,-16.36 -53.51,-34.75 -75.69,-57.6 -6.19,-7.87 -13.49,-15.06 -17.64,-24.32 -3.98,-7.81 -5.61,-16.52 -6.36,-25.14 1.15,-8.41 2.65,-16.79 4.65,-25.03 3.89,-13.19 6.38,-26.76 8.15,-40.39 1.71,-22.89 0.79,-45.88 -0.26,-68.78 -0.65,-22.99 1.57,-46.22 8.23,-68.3 -4.25,-2.68 -7.31,-6.78 -9.53,-11.21 -4.04,-7.27 -6.2,-15.34 -9.23,-23.05 -3.42,-8.89 -5.6,-18.16 -8.16,-27.31 -6.18,-22.85 -11.51,-45.92 -16.31,-69.1 -6.14,-32.97 -7.95,-66.53 -9.19,-99.99 -0.92,-27.23 -0.69,-54.58 2.5,-81.68 12.29,2.28 23.47,8.16 34.35,14.08 15.9,8.47 31.42,17.66 46.48,27.55 19.36,13.94 38.88,27.67 57.73,42.3 11.32,8.94 22.85,17.66 33.21,27.74 8.8,8.23 16.81,17.23 25.16,25.9 3.09,3.3 6.02,6.75 8.77,10.33 13.64,-2.11 27.2,-4.76 40.87,-6.69 20.73,-2.2 41.65,-0.56 62.29,1.81 15.04,1.76 30.05,4.27 44.56,8.67 12.31,-8.79 23.94,-18.51 36.51,-26.93 14.5,-8.71 29.48,-16.58 44.53,-24.29 18.96,-10.15 39.37,-17.16 58.76,-26.42 17.73,-8.39 35.7,-16.28 54.32,-22.5 25.67,-8.39 51.13,-17.6 77.48,-23.7 -9.72,-11.43 -19.05,-23.21 -29.33,-34.16 -8.66,-9.33 -17.93,-18.06 -26.88,-27.1 -6.28,-6.14 -13.23,-11.53 -19.93,-17.19 -24.38,-21.3 -52.7,-37.33 -80.88,-52.96 -18.71,-9.65 -37.65,-18.95 -57.37,-26.38 -19.77,-7.58 -40.52,-12 -60.92,-17.46 -20.87,-5.67 -42.15,-9.69 -62.89,-15.85 -5.6,-1.88 -11.62,-3.03 -16.53,-6.5 -4.84,-3.03 -2.78,-10.07 0.3,-13.67 4.96,-4.09 10.4,-8.01 16.76,-9.55 13.21,-3.49 26.73,-5.66 40.29,-7.28 m 315.68,289.86 c -7.18,24.35 -14.27,48.72 -21.45,73.07 -3.91,14.07 -8.57,27.91 -13.38,41.7 -9.98,30.92 -24.04,60.29 -36.96,90.05 -10.89,25.59 -23.66,50.32 -35.34,75.54 2.54,23.05 5.37,46.11 7.05,69.27 10.17,0.78 20.44,0.35 30.49,2.38 18.09,2.84 35.22,9.67 51.71,17.41 16.27,7.72 31.8,17 46.35,27.62 4.34,3.34 8.4,7.06 13.15,9.85 11.25,-24.34 16.53,-50.78 22.95,-76.65 8.85,-33.65 13.23,-68.4 13.79,-103.17 0.05,-11.7 0.37,-23.47 -1.15,-35.11 -2.02,-19.04 -4.01,-38.14 -7.9,-56.91 -6.33,-29.16 -15.01,-57.74 -24.34,-86.06 -8.46,-27 -23.5,-51.23 -38.55,-74.96 -2.27,8.63 -3.61,17.49 -6.42,25.97 M 470.56,459.58 c -11.04,9.26 -20.83,22.85 -18.95,37.96 1.92,3.07 0.59,7.06 2.85,10.01 2.44,3.74 3.19,9.13 7.61,11.15 3.16,1.8 4.87,5.42 8.31,6.84 8.66,4.01 18.05,6.39 27.59,6.47 7.21,0.71 13.86,-2.71 20.61,-4.67 6.07,-2.67 11.21,-7.2 15.32,-12.34 3.71,-5.82 8.35,-11.24 10.15,-18.04 2.35,-5.02 1.51,-10.62 1.89,-15.97 0.36,-9.67 -5.25,-18.47 -12.51,-24.4 -2.45,-1.77 -5.32,-2.81 -7.94,-4.27 -2.77,-1.52 -6.05,-0.8 -9.05,-0.87 -0.03,4.92 2.8,9.1 4.4,13.59 2.3,3.94 1.22,8.67 1.47,13.01 0.29,5.13 -3.82,8.85 -7.47,11.78 -5.88,3.59 -13.12,3.78 -19.79,3.11 -5.33,-1.57 -11.62,-3.07 -14.72,-8.15 -1.6,-4.43 -1.66,-9.35 -1.13,-13.98 0.43,-4 2.97,-7.22 4.99,-10.55 2.12,-3.95 6.58,-6.02 8.21,-10.33 -7.55,2.54 -15.2,5.15 -21.84,9.65 m 214.24,19.17 c -6.81,12.88 -13.21,26.14 -16.97,40.27 -2.04,7.21 -2.05,15.07 0.71,22.09 4.92,13.52 19.16,22.89 33.55,21.82 14.55,-0.59 27.78,-11.73 30.96,-25.92 2.88,-11.39 -1.72,-22.79 -5.72,-33.29 -7.3,-17.34 -15.94,-34.29 -27.17,-49.43 -5.91,7.63 -10.75,16.01 -15.36,24.46 m -63.77,86.51 c -6.86,-0.78 -12.79,3.45 -19.36,4.57 -0.69,0.79 -1.38,1.59 -2.05,2.4 -1.07,0.01 -2.13,0.02 -3.18,0.05 -2.82,3.41 -7.38,4.57 -10.39,7.77 -4.03,3.98 -8.09,7.94 -12.02,12.03 -1.16,1.07 -1.8,2.51 -2.38,3.94 5.44,-2.06 10.25,-6.85 16.46,-5.84 3.18,0.29 6.53,0.58 9.44,-1.02 2.28,1.04 4.81,1 7.23,1.46 3.51,1.12 7.1,2.28 10.16,4.42 6.45,4.36 12.66,9.56 16.54,16.42 1.48,3.77 4.51,6.7 5.43,10.71 3.27,6.09 5.11,12.79 7.28,19.33 0.14,3.98 2.1,7.61 1.86,11.65 1.46,2.36 1.13,5.21 1.25,7.87 0.03,5.71 0.01,11.42 -0.22,17.12 -0.84,1.49 -1.41,3.13 -1.21,4.88 0.28,3.45 -1.78,6.48 -1.57,9.96 -2.12,5.25 -4.09,10.6 -6.85,15.57 -2.13,4.93 -5.86,8.85 -8.86,13.22 -5.65,6.75 -12.2,13.14 -20.45,16.55 -3.4,0.82 -6.77,1.89 -10.28,2.16 -4.76,1.63 -10.21,1.91 -14.96,0.06 -3.18,-0.77 -6.81,0.39 -9.68,-1.53 -3.88,-2.46 -7.98,-4.67 -11.13,-8.08 -4.99,-4.14 -8.19,-9.85 -11.87,-15.07 -2.52,-6.15 -5.3,-12.26 -6.82,-18.76 -1.36,-6.64 0.25,-13.4 -0.42,-20.08 -3.16,1.85 -2.24,5.7 -3.29,8.65 -1.72,4.29 0.32,9.18 -1.97,13.35 -0.61,7.47 0.21,14.98 -0.31,22.46 -0.33,0.4 -1,1.21 -1.34,1.62 0.43,4.98 1.71,10.03 4.17,14.42 1.26,2.48 4.29,3.09 5.97,5.2 7.05,8.22 17.85,11.23 27.74,14.51 7.48,2.47 15.32,3.04 22.81,5.15 9.38,0.26 18.75,-0.09 28.13,0.11 1.87,0.22 3.6,-0.54 5.34,-1.1 6.46,-0.7 12.8,-2.53 18.71,-5.24 8.09,-2.68 15.9,-6.11 23.82,-9.22 9.65,-3.2 18.14,-8.81 26.46,-14.5 4.25,-2.29 6.63,-6.82 10.87,-9.12 8.65,-6.99 16.79,-15.93 18.93,-27.21 0.24,-8.73 0.18,-17.48 -0.03,-26.2 -1.39,-3.05 -0.89,-6.51 -2.28,-9.52 -0.77,-2.28 0.15,-4.81 -0.88,-7.04 -2.79,-7.5 -4.41,-15.51 -8.45,-22.5 -1.94,-3.58 -2.53,-7.78 -5.11,-11.02 -2.92,-3.91 -5.19,-8.21 -7.7,-12.37 -1.72,-3.2 -4.92,-5.12 -7.15,-7.89 -3.25,-4.95 -7.27,-9.58 -12.41,-12.63 -5.28,-4.78 -10.98,-9.16 -17.16,-12.75 -4.27,-1.81 -8.6,-3.52 -12.94,-5.17 -5.79,-1.57 -11.65,-2.86 -17.44,-4.43 -3.71,-1.33 -7.7,-0.41 -11.54,-0.7 -1.79,-0.25 -3.41,0.52 -4.9,1.38 m -230.88,8.33 c -7.73,-0.66 -15.18,2.81 -21.37,7.15 -3.14,3.29 -7.48,5.16 -10.28,8.8 -3.73,5.49 -8.42,10.25 -12.07,15.82 -5.2,8.55 -10.57,17.14 -13.82,26.67 -1.88,6.38 -4.41,12.55 -6.08,18.99 -1.44,6.69 -4.93,13.06 -4.21,20.04 -2.28,5.32 -1.19,11.18 -1.53,16.79 -3.06,3.31 0.54,7.31 1.41,10.82 7.54,13.44 19.9,23.88 34,30.01 2.99,1.14 5.38,3.35 8.19,4.83 10.42,3.99 20.59,8.87 31.65,10.9 8.53,2.65 17.63,0.95 26.42,1.3 2.67,-2.19 6.23,-0.67 9.21,-1.9 9.17,-2.44 14.97,-10.73 20.07,-18.14 1.39,-3.48 4.28,-6.61 3.78,-10.59 -0.13,-7.51 0.18,-15.03 -0.18,-22.53 -1.45,1.83 -1.46,4.31 -2.52,6.35 -1.39,2.78 -3.38,5.22 -4.79,8 -2.02,4.48 -6.2,7.33 -9.4,10.9 -3.85,4.33 -9.26,7.04 -14.76,8.62 -9.51,3.15 -19.73,1.15 -28.86,-2.35 -4.31,-2.63 -7.4,-6.73 -11.01,-10.17 -6.48,-5.39 -9.11,-13.89 -11.08,-21.78 -1.5,-3.37 0.02,-7.23 -1.48,-10.59 -0.77,-1.75 -0.61,-3.69 -0.66,-5.54 -0.11,-10.32 0.14,-20.64 -0.02,-30.95 -0.22,-1.73 0.57,-3.25 1.37,-4.7 -0.56,-9.17 2.43,-18.18 6.8,-26.16 2.47,-5.89 7.69,-9.83 12.08,-14.22 4.58,-4.56 10.54,-7.5 16.91,-8.58 2.88,-1.28 6.02,-1.3 9.12,-1.08 2.36,1.76 5.34,1.38 8.11,1.37 3.07,1.77 6.86,1.37 10,3.1 -3.64,-6.67 -9.48,-11.94 -15.73,-16.13 -2.51,-1.18 -5.33,-1.73 -7.66,-3.35 -3.91,-2.8 -9.02,-0.62 -13.12,-2.75 -2.86,-1.42 -5.79,0.09 -8.49,1.05 m 191.29,38.79 c -5.33,6.29 -9.93,13.43 -11.87,21.57 -0.59,3.16 0.67,6.57 -0.86,9.56 -2.48,5.89 1.4,11.75 0.98,17.72 1.52,2.83 0.92,6.14 2.1,9.06 1.25,3.74 2.76,7.48 5.42,10.45 2.19,2.88 5.9,3.94 8.17,6.74 4.41,0.03 8.82,0.01 13.23,0.01 -0.72,-4.22 0.62,-8.12 1.59,-12.14 1.51,-1.54 3.04,-3.07 4.57,-4.61 3.93,0.12 8.2,-0.61 11.65,1.79 -0.12,-2.97 1.73,-5.53 1.55,-8.49 0.15,-8.71 0.05,-17.42 -0.05,-26.12 -1.75,-5.33 -2.3,-11.07 -4.87,-16.11 -1.52,-3.92 -4.67,-6.77 -6.77,-10.32 -3.9,-1.95 -7.96,-4.06 -12.31,-4.6 -4.32,1.38 -8.88,2.69 -12.53,5.49 m -172.2,-3.23 c -7.72,4.42 -11.92,12.73 -14.4,20.95 -0.25,2.67 -0.71,5.3 -1.63,7.83 -0.22,5.69 -0.21,11.41 0,17.11 1.25,4 1.85,8.23 3.62,12.07 2.02,4.13 3.66,8.82 7.7,11.46 3.59,2.94 8.52,1.77 12.78,1.91 2.28,-2.27 4.56,-4.55 6.78,-6.89 2.1,-0.01 4.22,-0.01 6.34,0 -0.04,-4.65 1.84,-9.01 2.84,-13.5 0.09,-2.89 -0.54,-6.03 1.37,-8.49 0,-3.16 0.14,-6.32 -0.04,-9.46 -0.67,-2.01 -1.43,-3.99 -1.44,-6.14 -1.13,-5.85 -2.83,-11.6 -5.02,-17.15 -2.34,-3.5 -4.1,-7.96 -8.23,-9.71 -3.39,-1.24 -7.29,-1.26 -10.67,0.01 m 194,66.21 c -0.56,2.34 -1.41,4.6 -2.17,6.89 -1.79,4.04 -0.89,8.57 -0.98,12.85 1.28,4.63 2.23,9.39 4.27,13.78 1.26,3.1 3.87,5.32 5.66,8.08 2.3,3.65 5.84,6.21 8.72,9.37 0.75,0 2.27,0.01 3.03,0.01 2.38,-2.56 3.95,-5.75 6.45,-8.2 1.41,-1.54 3.05,-3.1 3.45,-5.23 1.18,-5.56 -1.62,-10.77 -2.83,-16.06 -3.03,-8.62 -6.79,-17.77 -14.63,-23.11 -2.28,-1.85 -5.36,-1.43 -8.08,-1.53 -0.98,1.04 -1.94,2.09 -2.89,3.15 m -178.85,-0.27 c -1.99,2.5 -4.16,4.85 -6.21,7.3 0.27,5.62 -1.1,11.39 0.81,16.86 1.18,7.99 6.1,14.83 12.1,20 1.35,0.15 2.72,0.23 4.1,0.22 3.59,-3.77 8.05,-6.93 10.42,-11.69 2.05,-10.21 -4.25,-19.11 -8.5,-27.81 -2.42,-4.63 -8,-5.54 -12.72,-4.88 m 44.86,75.36 c -2.91,3.37 1.53,6.48 3.31,9.19 3.01,0.03 6.02,0.03 9.03,0.01 2.07,-2.37 3.88,-4.98 4.89,-7.99 -2.58,-0.12 -4.97,-1.02 -7.43,-1.67 -3.25,-0.09 -6.62,-0.18 -9.8,0.46 M 499,779.2 c -2.97,0.34 -5.96,-0.19 -8.95,-0.09 -3.9,-0.1 -8.02,0.96 -11.66,-0.92 -4.06,2.07 -9.21,1.32 -13.13,-0.75 2.33,6.8 4.86,13.5 8.41,19.77 2.89,8.52 7.58,16.22 12.14,23.91 2.39,3.28 6.68,3.58 10.09,5.22 1.49,-0.98 3.18,-1.46 4.96,-1.55 4.61,-3.94 7.81,-9.08 10.68,-14.35 2.84,-4.04 5.08,-8.5 6.24,-13.31 0.22,-2.29 0.28,-4.64 1.43,-6.69 0.03,-3.14 0.52,-6.27 0.29,-9.4 -0.56,-2.5 -1.73,-4.87 -1.51,-7.49 -5.58,4.01 -12.73,3.58 -18.99,5.65 z" />
  </g>
  <g
     id="#006ed2ff">
    <path
       style="opacity:1;fill:#e3e3e3;fill-opacity:1"
       id="path5"
       d="m 684.8,478.75 c 4.61,-8.45 9.45,-16.83 15.36,-24.46 11.23,15.14 19.87,32.09 27.17,49.43 4,10.5 8.6,21.9 5.72,33.29 -3.18,14.19 -16.41,25.33 -30.96,25.92 -14.39,1.07 -28.63,-8.3 -33.55,-21.82 -2.76,-7.02 -2.75,-14.88 -0.71,-22.09 3.76,-14.13 10.16,-27.39 16.97,-40.27 z" />
  </g>
</svg>
