<?xml version="1.0" encoding="UTF-8" ?>
<!DOCTYPE svg PUBLIC "-//W3C//DTD SVG 1.1//EN" "http://www.w3.org/Graphics/SVG/1.1/DTD/svg11.dtd">
<svg width="1180pt" height="305pt" viewBox="0 0 1180 305" version="1.1" xmlns="http://www.w3.org/2000/svg">
<g id="#ffffffff">
<path fill="#ffffff" opacity="1.00" d=" M 31.43 24.69 C 38.45 21.74 47.19 27.37 47.19 35.01 C 47.34 61.67 47.20 88.34 47.26 115.01 C 47.39 129.54 52.75 143.85 61.78 155.19 C 73.20 169.53 90.86 178.69 109.15 179.82 C 123.70 180.85 138.49 176.84 150.60 168.73 C 168.37 157.05 179.71 136.25 179.92 114.99 C 179.96 88.66 179.91 62.34 179.95 36.01 C 179.60 30.29 184.26 25.10 189.78 24.16 C 196.47 22.64 203.61 28.22 203.60 35.11 C 203.64 62.06 203.66 89.02 203.59 115.97 C 203.42 134.58 196.98 152.95 185.78 167.77 C 172.40 185.71 152.17 198.48 130.13 202.53 C 111.03 205.97 90.71 203.54 73.39 194.59 C 44.60 180.17 24.61 149.35 24.03 117.05 C 23.95 90.04 24.03 63.04 23.99 36.03 C 23.65 31.14 26.90 26.42 31.43 24.69 Z" />
<path fill="#ffffff" opacity="1.00" d=" M 301.50 25.75 C 319.97 22.11 339.65 24.00 356.79 31.94 C 376.44 40.78 392.67 56.91 401.63 76.50 C 409.63 93.49 411.66 113.03 408.21 131.43 C 404.45 151.14 393.55 169.29 378.35 182.32 C 362.78 195.70 342.56 203.69 322.00 203.99 C 302.79 204.47 283.25 198.91 267.84 187.27 C 262.69 183.51 257.90 179.28 253.44 174.74 C 253.43 206.48 253.45 238.22 253.43 269.96 C 253.61 276.09 248.35 282.02 242.11 282.02 C 235.65 282.34 229.63 276.47 229.76 270.01 C 229.73 218.01 229.75 166.00 229.76 114.00 C 229.63 94.38 236.40 74.91 248.32 59.37 C 261.32 42.36 280.47 30.01 301.50 25.75 M 315.09 48.20 C 296.60 49.41 278.78 58.81 267.41 73.45 C 258.05 85.46 252.91 100.74 253.48 115.99 C 253.72 131.15 259.74 146.00 269.72 157.35 C 278.07 166.94 289.31 173.90 301.51 177.43 C 316.93 181.82 333.97 180.49 348.43 173.49 C 361.99 167.14 373.21 156.01 379.69 142.51 C 385.41 130.96 387.21 117.67 385.52 104.94 C 382.97 86.29 372.02 68.92 356.12 58.80 C 344.06 50.94 329.45 47.13 315.09 48.20 Z" />
<path fill="#ffffff" opacity="1.00" d=" M 480.12 36.42 C 494.14 27.95 510.56 23.66 526.92 24.00 C 548.11 24.05 569.01 32.25 584.92 46.17 C 599.48 58.84 609.83 76.27 613.87 95.15 C 616.92 109.80 616.42 125.22 612.23 139.60 C 605.99 160.51 591.85 178.90 573.33 190.41 C 542.95 209.91 500.36 208.49 471.99 185.88 C 467.53 182.49 463.37 178.72 459.43 174.74 C 459.45 205.82 459.42 236.89 459.45 267.97 C 459.79 272.14 458.48 276.53 455.18 279.25 C 451.05 283.09 444.07 282.88 440.01 279.04 C 437.38 276.79 435.66 273.44 435.76 269.94 C 435.73 219.28 435.76 168.63 435.75 117.98 C 435.67 111.27 435.95 104.53 437.19 97.93 C 441.72 72.50 457.89 49.52 480.12 36.42 M 521.09 48.20 C 502.83 49.40 485.21 58.58 473.83 72.93 C 464.19 85.03 458.89 100.56 459.48 116.06 C 459.72 129.51 464.47 142.73 472.56 153.46 C 483.78 168.54 501.73 178.35 520.47 179.76 C 546.61 182.18 573.32 167.41 585.00 143.88 C 591.37 131.77 593.37 117.62 591.41 104.14 C 588.66 85.80 577.79 68.78 562.13 58.80 C 550.07 50.94 535.45 47.13 521.09 48.20 Z" />
<path fill="#ffffff" opacity="1.00" d=" M 649.47 24.68 C 656.48 21.75 665.18 27.39 665.19 35.01 C 665.34 61.67 665.20 88.34 665.26 115.00 C 665.39 129.52 670.74 143.82 679.75 155.15 C 691.33 169.72 709.35 178.95 727.93 179.86 C 742.26 180.72 756.75 176.67 768.65 168.69 C 786.39 157.02 797.69 136.26 797.92 115.03 C 797.96 88.70 797.91 62.36 797.95 36.02 C 797.61 30.62 801.75 25.68 806.86 24.36 C 813.76 22.21 821.63 27.85 821.60 35.11 C 821.64 62.09 821.66 89.08 821.59 116.06 C 821.40 134.87 814.79 153.43 803.35 168.34 C 789.54 186.56 768.62 199.34 746.00 202.90 C 727.28 205.82 707.54 203.13 690.72 194.24 C 661.37 179.25 641.45 147.14 642.00 114.06 C 642.00 88.03 642.01 62.00 641.99 35.97 C 641.66 31.08 644.94 26.39 649.47 24.68 Z" />
<path fill="#ffffff" opacity="1.00" d=" M 910.55 24.69 C 920.32 23.41 930.21 24.23 940.04 24.00 C 946.12 23.72 952.10 28.85 952.21 35.05 C 952.61 40.84 947.74 46.06 942.16 46.88 C 929.74 47.89 916.75 45.17 904.84 49.87 C 886.46 56.53 873.51 75.52 873.82 95.03 C 873.79 127.69 873.85 160.35 873.79 193.02 C 873.69 199.04 868.06 204.33 862.03 204.02 C 855.76 204.12 849.81 198.50 850.18 192.11 C 850.19 165.73 850.18 139.36 850.18 112.98 C 850.45 100.68 849.07 88.07 852.64 76.09 C 859.86 49.69 883.36 28.51 910.55 24.69 Z" />
<path fill="#ffffff" opacity="1.00" d=" M 983.47 24.68 C 990.48 21.76 999.17 27.38 999.19 34.99 C 999.34 61.68 999.20 88.37 999.26 115.05 C 999.39 129.07 1004.40 142.88 1012.86 154.01 C 1022.18 166.30 1036.01 174.98 1051.03 178.37 C 1067.42 182.06 1085.15 179.29 1099.56 170.63 C 1113.68 162.43 1124.29 148.66 1129.07 133.09 C 1132.06 124.05 1132.08 114.46 1131.94 105.05 C 1131.94 82.03 1131.92 59.01 1131.95 35.99 C 1131.55 29.49 1137.63 23.76 1144.02 23.98 C 1150.02 23.76 1155.55 29.05 1155.60 35.05 C 1155.67 53.04 1155.60 71.03 1155.63 89.02 C 1155.47 99.98 1155.97 110.95 1155.29 121.89 C 1153.09 152.46 1133.42 180.71 1106.13 194.36 C 1087.22 204.15 1064.78 206.43 1044.13 201.54 C 1014.63 194.55 990.11 171.23 980.53 142.63 C 977.51 133.73 976.05 124.34 976.00 114.96 C 975.99 88.64 976.01 62.32 975.99 36.00 C 975.65 31.10 978.93 26.38 983.47 24.68 Z" />
</g>
</svg>
