<?xml version="1.0" encoding="UTF-8" ?>
<!DOCTYPE svg PUBLIC "-//W3C//DTD SVG 1.1//EN" "http://www.w3.org/Graphics/SVG/1.1/DTD/svg11.dtd">
<svg width="900pt" height="894pt" viewBox="0 0 900 894" version="1.1" xmlns="http://www.w3.org/2000/svg">
<g id="#ffffffff">
<path fill="#ffffff" opacity="1.00" d=" M 390.06 30.70 C 402.47 27.34 415.27 25.66 428.04 24.36 C 443.03 24.17 458.06 23.79 473.03 25.03 C 482.39 25.94 491.71 27.30 501.10 27.88 C 524.48 30.54 547.26 36.88 569.57 44.20 C 579.51 47.81 589.49 51.35 599.48 54.84 C 625.57 65.26 651.20 77.16 674.91 92.31 C 690.56 101.96 705.49 112.76 719.64 124.49 C 724.53 128.16 728.65 132.70 733.08 136.88 C 747.06 150.28 760.83 163.95 773.46 178.65 C 786.03 194.88 797.32 212.04 808.67 229.14 C 815.83 239.68 821.86 250.95 827.28 262.48 C 832.54 273.61 838.32 284.54 842.49 296.15 C 849.66 315.96 856.56 335.88 862.32 356.15 C 870.52 385.41 873.55 415.80 874.64 446.07 C 875.94 460.36 874.54 474.70 873.65 488.97 C 872.40 507.74 869.21 526.30 866.27 544.87 C 863.62 558.95 860.56 573.00 855.75 586.53 C 850.86 602.28 843.77 617.20 837.65 632.48 C 833.10 643.93 826.99 654.63 821.34 665.56 C 809.59 688.45 793.82 708.90 778.50 729.47 C 768.47 742.97 756.73 755.05 745.25 767.29 C 727.86 785.79 707.40 801.07 686.29 815.04 C 674.34 823.54 661.39 830.44 648.51 837.40 C 626.61 849.39 603.30 858.71 579.31 865.60 C 551.23 874.82 522.39 881.71 493.12 885.86 C 478.52 888.08 463.75 888.98 449.00 889.31 C 429.22 889.37 409.52 887.56 389.87 885.49 C 373.48 883.25 356.99 881.37 340.91 877.35 C 319.52 872.35 298.58 865.51 278.19 857.36 C 260.26 850.79 243.62 841.27 226.90 832.16 C 195.09 814.55 165.92 792.35 139.90 767.00 C 128.14 755.35 117.82 742.38 107.06 729.84 C 96.30 715.21 85.45 700.57 75.87 685.13 C 67.89 670.80 59.46 656.72 51.82 642.21 C 43.87 625.78 38.47 608.30 31.86 591.32 C 25.65 575.11 22.52 557.97 18.82 541.08 C 16.68 529.81 15.15 518.41 15.05 506.93 C 15.14 501.46 12.87 494.65 17.48 490.41 C 19.48 488.15 22.81 488.11 25.55 488.56 C 28.73 489.26 30.52 492.18 32.34 494.59 C 36.65 500.91 39.45 508.10 42.37 515.13 C 48.25 530.50 55.97 545.07 63.73 559.55 C 70.03 569.77 75.84 580.37 82.88 590.08 C 88.73 599.10 94.99 607.93 101.97 616.12 C 117.96 632.87 134.99 648.67 153.20 662.98 C 161.88 670.11 171.51 675.95 180.91 682.06 C 194.75 690.78 209.50 697.91 224.11 705.22 C 246.23 714.92 269.17 722.87 292.82 727.93 C 288.36 714.86 283.34 701.92 280.52 688.37 C 275.12 665.08 274.49 640.91 276.59 617.16 C 257.70 605.83 239.48 593.08 223.83 577.50 C 220.47 574.30 218.02 570.31 214.84 566.96 C 210.48 561.42 207.38 554.86 205.85 547.98 C 205.30 545.68 205.67 543.21 204.67 541.02 C 205.54 534.68 206.65 528.36 208.13 522.11 C 211.01 512.59 212.71 502.80 214.05 492.96 C 215.02 479.32 214.73 465.64 214.24 451.98 C 212.94 432.63 214.13 412.84 219.81 394.20 C 214.91 391.48 212.82 385.94 210.43 381.19 C 207.73 373.14 204.30 365.32 202.34 357.04 C 197.01 338.23 192.58 319.18 188.59 300.05 C 185.99 285.81 184.44 271.41 183.43 256.97 C 181.70 227.86 180.40 198.54 183.81 169.49 C 194.21 171.37 203.35 176.88 212.55 181.78 C 222.56 187.24 232.32 193.13 241.87 199.35 C 258.45 211.34 275.26 223.05 291.17 235.95 C 302.25 244.34 312.22 254.11 321.58 264.38 C 325.20 268.06 328.75 271.81 331.85 275.95 C 339.54 274.78 347.18 273.30 354.87 272.14 C 367.09 269.73 379.61 270.29 391.96 270.99 C 407.53 272.40 423.24 274.11 438.25 278.69 C 447.08 272.37 455.47 265.42 464.47 259.32 C 477.70 251.43 491.42 244.40 505.17 237.45 C 516.35 232.49 527.74 228.01 538.82 222.82 C 547.56 218.90 556.13 214.57 565.16 211.34 C 574.94 207.31 585.10 204.33 595.11 200.92 C 607.87 196.59 620.76 192.57 633.89 189.50 C 628.66 183.63 624.02 177.26 618.65 171.52 C 611.33 162.84 603.07 155.03 595.04 147.03 C 589.42 141.18 582.87 136.37 576.78 131.05 C 559.86 116.73 540.48 105.80 521.20 95.04 C 502.73 85.54 483.89 76.36 463.85 70.66 C 452.94 67.67 441.96 64.93 431.02 62.07 C 414.61 57.80 397.85 54.74 381.83 49.10 C 379.45 47.86 375.82 46.34 376.39 43.05 C 376.69 40.68 377.45 37.98 379.57 36.59 C 382.80 34.20 386.09 31.72 390.06 30.70 M 651.59 215.13 C 650.12 220.51 649.34 226.05 647.69 231.38 C 640.96 254.21 634.33 277.06 627.56 299.87 C 624.02 310.28 620.47 320.69 616.87 331.07 C 609.88 348.50 602.23 365.65 594.63 382.81 C 586.92 400.76 578.03 418.16 569.72 435.84 C 571.77 452.42 573.62 469.04 574.89 485.71 C 579.19 485.94 583.48 486.24 587.80 486.25 C 595.96 486.96 604.01 488.63 611.87 490.95 C 630.94 497.42 649.06 506.71 665.45 518.41 C 669.44 521.05 672.76 524.61 676.98 526.91 C 685.61 508.24 689.34 487.93 694.40 468.13 C 701.80 438.74 704.34 408.23 703.23 377.99 C 701.20 359.35 699.58 340.56 694.87 322.35 C 690.47 303.62 684.67 285.25 678.66 266.98 C 672.47 248.35 662.01 231.62 651.59 215.13 M 350.47 325.30 C 349.19 325.80 347.88 326.17 346.61 326.66 C 345.27 327.34 343.93 328.02 342.60 328.72 C 337.78 330.42 334.93 334.95 331.30 338.27 C 330.61 339.82 329.50 341.12 328.65 342.57 C 328.42 343.08 327.96 344.08 327.73 344.59 C 326.62 346.39 325.76 348.32 325.83 350.49 C 324.17 352.77 325.28 355.84 325.05 358.46 C 326.78 360.00 325.38 362.61 326.65 364.42 C 327.57 366.12 328.47 367.84 329.24 369.63 C 329.84 370.71 330.45 371.78 331.16 372.81 C 334.33 373.50 335.60 377.15 338.55 378.37 C 340.49 379.31 342.56 379.96 344.53 380.84 C 345.02 380.91 345.99 381.05 346.48 381.13 C 348.10 382.89 351.00 381.06 352.54 382.95 C 356.79 382.53 361.67 384.09 365.52 382.11 C 366.01 382.05 366.98 381.93 367.47 381.87 C 368.40 381.28 369.41 380.89 370.51 380.70 C 371.79 380.19 373.13 379.83 374.44 379.37 C 375.87 378.50 377.17 377.38 378.72 376.70 C 380.97 374.32 383.85 372.37 385.34 369.37 C 386.07 368.41 386.81 367.46 387.34 366.38 C 388.06 365.43 388.79 364.48 389.33 363.42 C 391.16 360.65 391.70 357.36 392.94 354.45 C 392.63 349.85 393.90 344.86 392.27 340.51 C 392.01 339.51 391.72 338.53 391.41 337.56 C 390.51 336.13 389.37 334.84 388.70 333.28 C 386.72 331.29 384.97 328.95 382.44 327.64 C 381.92 327.41 380.90 326.97 380.39 326.74 C 379.91 326.47 378.93 325.92 378.45 325.64 C 376.46 324.50 374.07 325.15 371.91 324.99 C 371.80 327.00 372.15 328.94 373.32 330.62 C 373.81 331.85 374.18 333.14 374.68 334.38 C 375.19 335.53 376.14 336.59 375.99 337.94 C 375.84 341.10 376.53 344.43 375.45 347.47 C 373.93 349.87 371.89 351.95 369.46 353.43 C 368.47 353.73 367.48 354.01 366.49 354.27 C 366.12 354.44 365.37 354.79 365.00 354.96 C 361.54 354.74 357.74 355.77 354.51 354.30 C 353.08 353.94 351.72 353.36 350.37 352.80 C 348.33 351.89 346.56 350.49 345.57 348.47 C 344.71 344.26 344.24 339.33 346.20 335.35 C 347.17 333.61 348.46 332.08 349.29 330.27 C 351.01 328.15 353.82 326.67 354.38 323.81 C 353.12 324.45 351.84 325.00 350.47 325.30 M 447.46 406.94 C 445.48 407.23 443.07 406.33 441.48 407.89 C 440.99 407.95 440.02 408.07 439.53 408.13 C 438.60 408.72 437.59 409.10 436.50 409.28 C 435.48 409.80 434.39 410.08 433.24 410.14 C 432.85 410.60 432.07 411.53 431.68 412.00 C 431.10 412.00 429.94 412.00 429.35 412.00 C 428.95 412.43 428.16 413.29 427.76 413.72 C 426.15 414.38 424.85 415.58 423.28 416.30 C 419.55 419.97 415.75 423.58 412.21 427.42 C 412.07 427.87 411.79 428.78 411.65 429.24 C 412.62 428.71 413.61 428.20 414.60 427.71 C 415.93 427.03 417.25 426.35 418.58 425.66 C 422.12 423.59 427.29 426.65 430.31 424.00 C 431.97 425.75 434.61 424.37 436.49 425.70 C 437.91 426.06 439.27 426.63 440.65 427.19 C 441.94 427.92 443.20 428.72 444.38 429.66 C 448.25 432.21 451.69 435.76 454.34 439.57 C 455.29 441.62 456.11 443.79 457.80 445.38 C 457.97 446.42 458.25 447.43 458.64 448.42 C 459.20 449.47 459.79 450.52 460.36 451.58 C 460.70 452.54 461.01 453.51 461.30 454.51 C 461.70 455.47 462.03 456.47 462.30 457.50 C 462.70 458.47 463.03 459.47 463.28 460.50 C 464.68 462.28 463.18 464.96 464.93 466.53 C 464.98 467.84 465.01 469.15 465.06 470.47 L 465.84 471.48 C 466.22 477.11 465.92 482.80 465.96 488.46 C 463.80 490.26 466.16 493.66 464.09 495.53 C 463.92 497.16 464.34 498.98 463.28 500.41 C 462.30 502.42 461.65 504.57 460.78 506.63 C 460.26 507.54 459.75 508.45 459.25 509.38 C 458.76 510.47 458.23 511.54 457.75 512.64 C 456.93 513.56 456.08 514.49 455.70 515.70 C 454.57 516.93 453.18 518.04 452.72 519.73 C 449.54 522.52 447.13 526.43 443.27 528.28 C 442.88 528.65 442.11 529.39 441.72 529.76 C 440.59 530.22 439.50 530.77 438.42 531.31 C 437.25 532.07 435.82 531.97 434.51 532.17 C 432.85 533.85 429.99 532.07 428.46 533.96 C 426.15 534.01 423.84 534.01 421.54 533.96 C 418.99 531.81 415.04 534.07 412.35 531.79 C 410.62 530.82 409.07 529.54 407.28 528.70 C 404.77 525.91 401.28 523.76 399.72 520.28 C 399.36 519.89 398.64 519.11 398.28 518.72 C 397.94 517.47 397.03 516.55 396.20 515.64 C 395.51 513.98 394.94 512.29 394.30 510.63 C 393.64 509.29 393.02 507.94 392.69 506.49 C 392.29 505.51 391.96 504.51 391.71 503.50 C 390.03 498.49 391.50 492.85 390.98 487.61 C 387.80 488.91 390.02 492.56 388.05 494.54 C 387.99 496.84 388.01 499.15 387.96 501.46 L 387.16 502.47 C 386.63 508.12 387.35 513.87 386.86 519.53 L 386.00 520.55 C 386.07 521.89 385.70 523.45 386.83 524.51 C 386.85 526.32 387.35 528.03 388.22 529.63 C 389.00 531.18 389.77 533.00 391.73 533.25 C 394.60 536.20 397.39 539.34 401.39 540.72 C 403.67 541.91 406.03 542.93 408.48 543.71 C 409.58 543.88 410.59 544.27 411.53 544.86 C 412.02 544.93 412.99 545.06 413.47 545.13 C 414.87 546.48 417.14 545.49 418.54 546.89 C 420.19 547.16 422.24 546.48 423.53 547.90 C 425.19 548.18 427.30 547.43 428.54 548.96 C 435.37 549.06 442.20 548.95 449.03 549.02 C 450.53 548.85 452.42 549.49 453.53 548.07 C 454.83 548.01 456.14 547.97 457.46 547.92 C 458.83 546.59 460.94 547.28 462.50 546.31 C 463.49 546.03 464.46 545.70 465.41 545.30 C 466.72 544.62 468.07 544.00 469.54 543.71 C 471.25 543.09 472.97 542.51 474.62 541.72 C 475.85 541.18 477.13 540.80 478.37 540.28 C 480.41 539.31 482.59 538.68 484.63 537.71 C 486.28 537.05 487.97 536.49 489.60 535.78 C 491.17 534.88 492.79 534.08 494.43 533.33 C 495.48 532.79 496.42 532.05 497.38 531.34 C 498.46 530.81 499.41 530.06 500.38 529.34 C 501.46 528.81 502.41 528.07 503.37 527.34 C 506.77 525.95 508.24 521.92 511.73 520.72 C 514.57 517.59 518.26 515.10 520.34 511.37 C 521.05 510.42 521.77 509.48 522.36 508.44 C 523.10 506.83 523.93 505.24 524.28 503.49 C 524.45 503.10 524.79 502.34 524.96 501.95 C 525.05 495.15 525.01 488.34 524.96 481.54 C 523.02 480.00 524.97 477.02 523.06 475.46 C 522.76 473.48 523.66 471.07 522.11 469.48 C 522.05 468.99 521.93 468.02 521.87 467.53 C 521.27 466.60 520.89 465.59 520.71 464.50 C 520.29 463.52 519.96 462.51 519.71 461.48 C 519.19 460.20 518.82 458.88 518.34 457.60 C 517.65 456.25 516.96 454.91 516.22 453.61 C 515.47 451.97 514.91 450.27 514.38 448.56 C 513.49 447.12 512.38 445.83 511.70 444.28 C 511.34 443.89 510.62 443.11 510.26 442.71 C 509.49 440.33 507.79 438.47 506.71 436.27 C 504.77 433.90 501.82 432.22 500.72 429.27 C 498.26 427.08 496.40 423.98 493.27 422.72 C 492.08 421.57 490.91 420.42 489.73 419.28 C 488.05 418.80 486.93 417.42 485.69 416.31 C 483.92 415.41 482.36 414.18 480.66 413.19 C 478.57 412.36 476.41 411.71 474.40 410.71 C 473.45 410.29 472.49 409.96 471.50 409.69 C 469.94 408.72 467.85 409.38 466.46 408.10 C 465.48 408.03 464.50 407.97 463.53 407.91 C 462.51 406.70 460.86 407.10 459.51 406.85 C 457.71 405.29 455.15 406.24 453.01 405.97 C 451.17 406.22 448.87 405.32 447.46 406.94 M 281.46 412.95 C 279.15 413.19 276.60 412.42 274.51 413.71 C 273.07 414.03 271.73 414.63 270.39 415.24 C 267.45 416.51 264.81 418.26 262.73 420.71 C 260.39 421.46 258.98 423.64 257.28 425.28 C 256.64 427.40 254.69 428.68 253.29 430.27 C 252.80 431.94 251.43 433.06 250.31 434.31 C 249.41 436.06 248.14 437.60 247.29 439.40 C 246.36 441.10 245.15 442.63 244.25 444.36 C 243.65 445.72 242.98 447.06 242.28 448.39 C 241.07 450.66 240.07 453.03 239.29 455.48 C 239.04 456.51 238.71 457.51 238.30 458.50 C 238.04 459.52 237.70 460.52 237.29 461.50 C 237.11 462.59 236.72 463.60 236.13 464.53 C 236.07 465.02 235.94 465.98 235.87 466.47 C 234.53 467.87 235.47 470.12 234.13 471.53 C 234.07 472.02 233.94 472.99 233.87 473.47 C 232.48 474.87 233.55 477.20 232.06 478.55 C 231.67 480.84 232.86 483.71 231.04 485.54 C 230.96 488.84 231.04 492.15 230.96 495.47 C 229.52 496.41 229.78 498.31 230.71 499.48 C 231.05 500.92 231.63 502.27 232.19 503.64 C 233.13 505.96 235.44 507.38 236.28 509.73 C 239.40 512.57 241.90 516.26 245.63 518.34 C 246.57 519.07 247.53 519.81 248.62 520.34 C 250.31 521.84 252.40 522.70 254.39 523.72 C 256.78 524.96 259.46 525.79 261.36 527.80 C 263.44 528.64 265.60 529.31 267.63 530.29 C 269.30 530.93 271.00 531.51 272.62 532.28 C 273.91 532.82 275.27 533.19 276.53 533.84 C 277.02 533.91 277.99 534.06 278.47 534.14 C 279.88 535.49 282.16 534.48 283.54 535.91 C 284.51 535.96 285.49 536.02 286.47 536.08 L 287.48 536.83 C 293.11 537.23 298.81 536.92 304.46 536.96 C 306.26 534.79 309.67 537.17 311.53 535.09 C 312.04 535.05 313.06 534.97 313.57 534.94 C 314.49 534.02 315.41 533.03 316.72 532.72 C 318.64 530.66 321.24 529.01 322.30 526.31 C 323.43 525.11 324.64 523.94 325.36 522.43 C 325.58 521.92 326.04 520.92 326.27 520.41 C 326.90 518.97 328.15 517.67 328.00 516.01 C 328.03 510.34 327.98 504.67 328.00 499.00 L 327.19 499.00 C 327.08 500.65 326.48 502.17 325.80 503.65 C 324.67 505.59 323.28 507.37 322.28 509.39 C 321.71 511.06 320.32 512.22 319.07 513.40 L 318.98 514.00 L 318.04 514.00 L 317.99 514.69 C 317.66 515.02 317.01 515.66 316.69 515.99 L 316.00 516.03 L 316.00 516.98 L 315.40 517.07 C 314.23 518.33 313.05 519.66 311.41 520.31 C 310.47 520.77 309.54 521.25 308.62 521.75 C 307.04 522.65 305.32 523.13 303.51 523.18 C 301.68 524.68 299.15 523.76 297.01 524.03 C 295.17 523.81 292.99 524.58 291.49 523.16 C 290.14 522.95 288.66 523.11 287.51 522.27 C 286.51 522.01 285.52 521.73 284.53 521.43 C 280.96 519.10 278.39 515.60 275.24 512.77 C 273.53 511.36 272.57 509.39 271.71 507.41 C 270.88 505.83 270.05 504.24 269.70 502.49 C 268.71 500.94 269.42 498.81 268.06 497.45 C 267.99 495.48 268.00 493.50 267.95 491.54 C 267.72 491.15 267.27 490.38 267.04 490.00 C 266.92 481.99 267.06 473.98 266.98 465.97 C 267.15 464.45 266.48 462.54 267.96 461.46 C 268.01 459.15 267.98 456.85 268.06 454.55 C 269.43 453.19 268.70 451.05 269.70 449.51 C 270.05 447.75 270.88 446.15 271.70 444.57 C 271.96 444.08 272.47 443.10 272.73 442.60 C 272.96 442.09 273.41 441.07 273.64 440.57 C 276.14 436.56 280.09 433.72 283.27 430.28 C 284.52 429.96 285.43 429.03 286.36 428.20 C 287.72 427.63 289.08 427.07 290.51 426.69 C 292.07 425.71 294.20 426.41 295.55 425.05 C 297.18 424.99 298.82 424.99 300.46 425.03 C 301.97 426.74 304.48 425.73 306.46 426.07 C 307.46 427.29 309.12 426.89 310.48 427.17 C 311.17 427.47 312.56 428.06 313.26 428.35 C 311.92 424.76 308.83 422.41 306.26 419.74 C 305.41 418.86 304.48 418.02 303.26 417.73 C 302.87 417.34 302.10 416.56 301.71 416.17 C 300.16 416.05 298.76 415.43 297.39 414.76 C 294.86 412.66 291.62 412.91 288.54 412.95 C 286.71 411.42 283.28 411.40 281.46 412.95 M 425.52 437.71 C 424.08 438.05 422.72 438.63 421.37 439.20 C 419.38 440.15 417.34 441.43 416.70 443.69 C 415.57 444.88 414.32 446.03 413.69 447.59 C 413.21 448.52 412.73 449.45 412.23 450.38 C 411.63 451.72 411.04 453.07 410.70 454.51 C 409.32 456.91 410.26 459.83 409.96 462.46 C 408.02 464.59 409.35 467.85 409.05 470.46 C 410.73 471.99 409.74 474.48 410.06 476.46 C 411.80 478.03 410.33 480.69 411.70 482.49 C 412.07 483.91 412.63 485.27 413.19 486.65 C 414.70 489.35 416.76 492.16 419.76 493.26 C 420.16 493.70 420.95 494.57 421.35 495.00 C 424.56 495.00 427.77 495.00 430.99 495.00 C 431.27 492.85 430.22 490.19 431.92 488.47 C 431.95 487.95 432.01 486.90 432.04 486.38 C 433.20 485.29 434.32 484.16 435.40 483.00 C 437.41 482.98 439.43 482.98 441.45 483.07 C 442.06 483.39 443.28 484.03 443.89 484.36 C 443.94 483.65 444.03 482.24 444.08 481.53 L 444.84 480.52 C 445.25 474.40 444.85 468.21 445.02 462.06 C 444.85 460.52 445.50 458.62 444.09 457.47 C 444.02 456.49 443.96 455.51 443.90 454.54 C 442.61 452.40 442.95 449.62 441.28 447.58 C 441.05 447.08 440.59 446.07 440.36 445.56 C 439.43 443.58 437.39 442.36 436.68 440.26 C 435.57 439.76 434.49 439.21 433.41 438.67 C 432.45 438.28 431.48 437.96 430.50 437.71 C 429.03 436.66 426.97 436.64 425.52 437.71 M 294.53 438.55 C 291.83 440.41 289.29 442.71 287.63 445.56 C 287.41 446.07 286.97 447.10 286.75 447.61 C 286.47 448.10 285.91 449.07 285.63 449.56 C 285.28 450.52 284.98 451.51 284.71 452.50 C 283.31 454.28 284.83 456.98 283.05 458.54 C 282.97 463.17 282.96 467.81 283.06 472.45 C 284.42 473.80 283.71 475.93 284.70 477.49 C 285.05 479.25 285.88 480.85 286.72 482.42 C 286.95 482.93 287.42 483.93 287.65 484.43 C 288.66 486.59 290.50 488.23 292.53 489.44 C 295.03 490.48 297.82 489.83 300.45 490.01 C 302.13 488.38 303.78 486.72 305.36 485.00 C 306.90 484.99 308.44 484.99 309.98 485.00 C 309.99 483.84 310.02 482.69 310.05 481.54 C 311.32 480.55 310.88 478.87 311.15 477.51 C 313.26 475.27 310.67 471.57 312.96 469.46 C 313.02 466.82 313.02 464.18 312.95 461.54 C 311.07 460.00 312.86 457.14 311.16 455.49 C 310.90 454.13 311.26 452.52 310.13 451.48 C 310.05 450.99 309.91 450.02 309.84 449.54 C 309.13 448.29 308.85 446.88 308.39 445.55 C 307.77 444.52 307.05 443.56 306.34 442.63 C 305.64 440.78 304.17 439.46 302.47 438.57 C 299.97 437.65 297.03 437.67 294.53 438.55 M 436.39 483.98 C 435.65 484.77 434.91 485.55 434.17 486.33 C 434.14 487.52 433.79 488.58 433.12 489.53 C 433.06 490.02 432.95 490.99 432.89 491.48 C 431.38 492.92 432.19 495.16 431.97 496.99 C 432.17 498.82 431.42 501.00 432.84 502.51 C 433.01 503.85 432.91 505.30 433.70 506.49 C 434.07 507.91 434.63 509.27 435.19 510.64 C 436.05 512.41 437.29 513.93 438.70 515.31 C 440.06 518.49 443.28 520.33 445.39 523.00 C 445.95 523.00 447.08 523.00 447.64 523.00 C 448.32 522.23 449.01 521.46 449.70 520.70 C 450.60 518.16 453.20 516.81 454.45 514.48 C 455.31 512.61 454.95 510.52 454.96 508.55 C 453.42 507.22 454.52 504.88 453.14 503.47 C 453.06 502.99 452.91 502.02 452.83 501.53 C 451.97 499.55 451.36 497.47 450.30 495.59 C 448.55 491.09 445.58 487.14 441.47 484.55 C 439.88 483.79 438.09 484.02 436.39 483.98 M 305.53 486.00 C 304.16 487.93 302.39 489.52 301.00 491.42 C 301.46 495.39 299.98 499.87 301.82 503.51 C 301.86 505.32 302.34 507.04 303.25 508.61 C 304.63 512.45 307.59 515.18 310.39 517.99 C 311.15 518.00 312.67 518.00 313.43 518.00 C 316.03 515.24 319.27 512.95 320.98 509.47 C 320.77 506.83 321.67 503.92 320.30 501.51 C 319.96 500.07 319.36 498.73 318.77 497.39 C 318.04 496.08 317.35 494.75 316.70 493.40 C 315.47 490.77 314.33 487.82 311.47 486.57 C 309.61 485.66 307.50 486.07 305.53 486.00 M 338.21 539.96 C 337.36 541.00 336.42 542.22 337.58 543.47 C 338.36 544.74 339.33 545.87 340.30 547.01 C 342.43 546.99 344.56 546.99 346.70 547.01 C 347.66 545.87 348.65 544.75 349.39 543.45 C 349.61 542.86 350.05 541.67 350.27 541.07 C 349.59 541.04 348.21 540.96 347.53 540.93 C 344.93 538.97 341.25 540.45 338.21 539.96 M 366.51 559.17 C 365.14 560.44 363.18 559.86 361.53 560.10 C 359.14 561.96 355.75 560.60 352.95 561.00 C 350.12 560.60 346.67 562.00 344.31 559.99 C 342.87 562.08 339.71 560.59 337.55 560.94 C 336.86 560.61 335.50 559.94 334.82 559.61 C 335.44 560.85 336.00 562.15 336.30 563.53 C 336.91 565.23 337.49 566.95 338.22 568.62 C 338.73 569.53 339.23 570.45 339.73 571.38 C 340.24 572.46 340.79 573.53 341.32 574.62 C 341.93 576.29 342.50 577.97 343.23 579.60 C 344.11 581.17 344.90 582.79 345.67 584.43 C 346.66 586.09 347.86 587.63 348.72 589.38 C 349.31 591.26 350.86 592.52 352.54 593.43 C 353.52 593.72 354.52 594.00 355.52 594.25 C 356.59 595.27 357.58 595.21 358.51 594.07 C 359.04 594.04 360.10 593.99 360.63 593.97 C 361.97 592.53 363.35 591.14 364.70 589.72 C 365.41 588.18 366.50 586.88 367.29 585.40 C 368.27 583.37 369.66 581.58 370.81 579.66 C 371.36 578.28 371.92 576.91 372.30 575.49 C 373.67 573.69 372.18 571.01 373.95 569.46 C 373.57 566.20 375.08 562.24 373.04 559.46 C 373.04 558.80 373.03 557.47 373.03 556.81 C 371.07 558.14 368.94 559.27 366.51 559.17 Z" />
</g>
</svg>
